<svg width="24" height="24" viewBox="0 0 24 24" fill="none" xmlns="http://www.w3.org/2000/svg">
<path d="M18.25 3H17.5V2H16V3H8V2H6.5V3H5.75C5.02106 3.00132 4.32236 3.29148 3.80692 3.80692C3.29148 4.32236 3.00132 5.02106 3 5.75V18.25C3.00132 18.9789 3.29148 19.6776 3.80692 20.1931C4.32236 20.7085 5.02106 20.9987 5.75 21H18.25C18.9789 20.9987 19.6776 20.7085 20.1931 20.1931C20.7085 19.6776 20.9987 18.9789 21 18.25V5.75C20.9987 5.02106 20.7085 4.32236 20.1931 3.80692C19.6776 3.29148 18.9789 3.00132 18.25 3ZM16 4.5H17.5V6H16V4.5ZM6.5 4.5H8V6H6.5V4.5ZM19.5 18.25C19.5 18.94 18.94 19.5 18.25 19.5H5.75C5.06 19.5 4.5 18.94 4.5 18.25V8.5H19.5V18.25Z" fill="white"/>
</svg>
