<svg width="15" height="15" viewBox="0 0 15 15" fill="none" xmlns="http://www.w3.org/2000/svg">
<path d="M7.05476 0C7.70236 0 8.327 0.0826729 8.92867 0.248019C9.53035 0.413365 10.0907 0.652197 10.6097 0.964517C11.1287 1.27684 11.6041 1.64427 12.0358 2.06682C12.4675 2.48937 12.8373 2.96474 13.145 3.49293C13.4527 4.02112 13.6893 4.58375 13.8546 5.18084C14.0199 5.77792 14.1049 6.40256 14.1095 7.05476C14.1095 7.70236 14.0268 8.327 13.8615 8.92867C13.6961 9.53035 13.4573 10.0907 13.145 10.6097C12.8327 11.1287 12.4652 11.6041 12.0427 12.0358C11.6201 12.4675 11.1448 12.8373 10.6166 13.145C10.0884 13.4527 9.52576 13.6893 8.92867 13.8546C8.33159 14.0199 7.70695 14.1049 7.05476 14.1095C6.40715 14.1095 5.78251 14.0268 5.18084 13.8615C4.57916 13.6961 4.01882 13.4573 3.49982 13.145C2.98082 12.8327 2.50545 12.4652 2.07371 12.0427C1.64198 11.6201 1.27224 11.1448 0.964517 10.6166C0.65679 10.0884 0.420254 9.52576 0.254908 8.92867C0.0895623 8.33159 0.00459294 7.70695 0 7.05476C0 6.40715 0.0826729 5.78251 0.248019 5.18084C0.413365 4.57916 0.652197 4.01882 0.964517 3.49982C1.27684 2.98082 1.64427 2.50545 2.06682 2.07371C2.48937 1.64198 2.96474 1.27224 3.49293 0.964517C4.02112 0.65679 4.58375 0.420254 5.18084 0.254908C5.77792 0.0895623 6.40256 0.00459294 7.05476 0ZM11.2091 4.71925L10.2721 3.78229L5.73199 8.32241L3.8374 6.42782L2.90044 7.36478L5.73199 10.1963L11.2091 4.71925Z" fill="#28C840"/>
</svg>
