<svg width="19" height="19" viewBox="0 0 19 19" fill="none" xmlns="http://www.w3.org/2000/svg">
<path d="M10.1803 4.90127L13.1967 7.91767M3.01639 15.0816H6.03279L13.9508 7.16357C14.1489 6.96551 14.306 6.73038 14.4132 6.4716C14.5204 6.21283 14.5755 5.93547 14.5755 5.65537C14.5755 5.37528 14.5204 5.09792 14.4132 4.83914C14.306 4.58037 14.1489 4.34524 13.9508 4.14718C13.7528 3.94912 13.5176 3.79201 13.2589 3.68482C13.0001 3.57763 12.7227 3.52246 12.4426 3.52246C12.1625 3.52246 11.8852 3.57763 11.6264 3.68482C11.3676 3.79201 11.1325 3.94912 10.9344 4.14718L3.01639 12.0652V15.0816Z" stroke="white" stroke-width="0.754098" stroke-linecap="round" stroke-linejoin="round"/>
</svg>
