<svg width="15" height="15" viewBox="0 0 15 15" fill="none" xmlns="http://www.w3.org/2000/svg">
<path d="M5.86989 9.45804L10.7618 4.56614M5.86989 9.78417V11.2367C5.86989 12.7852 5.86989 13.5588 6.33299 13.6827C6.79609 13.8066 7.28398 13.1622 8.25975 11.874L8.80503 11.0887M4.89673 4.68289L9.67188 2.4261C11.656 1.48816 12.6481 1.01919 13.2808 1.48946C13.9135 1.95973 13.7328 3.03204 13.3708 5.176L12.7486 8.86906C12.5118 10.2708 12.3937 10.9713 11.8713 11.2772C11.3488 11.5831 10.6698 11.3483 9.31249 10.8787L5.16089 9.44239C2.62232 8.56446 1.35304 8.12549 1.30607 7.26386C1.25781 6.40289 2.471 5.8289 4.89673 4.68289Z" stroke="white" stroke-width="0.978381" stroke-linecap="round" stroke-linejoin="round"/>
</svg>
